<?xml version="1.0" encoding="UTF-8" standalone="no"?>
<!-- Created with Inkscape (http://www.inkscape.org/) -->

<svg
   width="50.268818mm"
   height="50.268818mm"
   viewBox="0 0 50.268817 50.268819"
   version="1.1"
   id="svg25224"
   sodipodi:docname="closedEye.svg"
   inkscape:version="1.1 (c68e22c387, 2021-05-23)"
   xmlns:inkscape="http://www.inkscape.org/namespaces/inkscape"
   xmlns:sodipodi="http://sodipodi.sourceforge.net/DTD/sodipodi-0.dtd"
   xmlns="http://www.w3.org/2000/svg"
   xmlns:svg="http://www.w3.org/2000/svg">
  <sodipodi:namedview
     id="namedview25226"
     pagecolor="#ffffff"
     bordercolor="#666666"
     borderopacity="1.0"
     inkscape:pageshadow="2"
     inkscape:pageopacity="0.0"
     inkscape:pagecheckerboard="0"
     inkscape:document-units="mm"
     showgrid="false"
     inkscape:zoom="1.5554293"
     inkscape:cx="130.83205"
     inkscape:cy="190.62262"
     inkscape:window-width="1962"
     inkscape:window-height="1081"
     inkscape:window-x="318"
     inkscape:window-y="232"
     inkscape:window-maximized="0"
     inkscape:current-layer="layer1" />
  <defs
     id="defs25221" />
  <g
     inkscape:label="Calque 1"
     inkscape:groupmode="layer"
     id="layer1"
     transform="translate(52.750452,39.978838)">
    <path
       id="path14965-9"
       style="fill:none;stroke:#bc9105;stroke-width:1.57468;stroke-linecap:round;stroke-linejoin:round;stroke-miterlimit:4;stroke-dasharray:none;stroke-opacity:1"
       inkscape:transform-center-x="2.3249119"
       inkscape:transform-center-y="-8.7200382"
       d="m -26.96162,5.9075558 c 0.07141,1.3924507 -0.0259,2.3236698 -0.391509,3.3779513 m 3.670877,-3.6918911 c 0.28716,1.2333095 1.520535,3.1808867 1.520535,3.1808867 m 1.76333,-4.3723541 c 0.883616,1.5118008 1.163392,2.0474972 2.267913,2.664152 m 0.613192,-4.1936578 c 0.552279,1.3327728 1.195308,1.9670015 3.09508,2.305165 m 2.990088,-2.7550281 C -12.75754,2.6018249 -14.436407,2.0249268 -15.253749,0.99054372 M -30.106365,5.6579497 c -0.28716,1.2333096 -1.700951,3.0605999 -1.700951,3.0605999 m -1.67836,-4.325119 c -0.883616,1.5118065 -1.223538,2.0474972 -2.328053,2.6641576 M -36.32099,2.8274075 c -0.552279,1.3327728 -1.375735,2.027142 -3.275507,2.3653055 m -2.841102,-2.8731214 c 1.325426,0.1790452 2.70359,-0.2174312 3.520932,-1.2518144 m -1.971272,-2.3335801 c 8.873732,9.1559838 18.811539,9.3475872 27.711851,0 -9.518177,-8.8044041 -17.756823,-8.8634991 -27.711851,0 z m -8.005343,-14.8973871 7.457423,8.179112 m 11.269276,-5.708279 -3.095017,-21.754409 m -0.02688,22.477346 -6.143599,-20.216684 m 3.26882,21.332408 -8.133111,-17.22063 m 4.944638,18.739313 -8.49488,-13.256638 m 43.0882999,7.428461 -7.4574229,8.1791123 m -14.610061,-6.1589283 0.191157,-22.863017 m 3.149628,23.313666 3.095017,-21.754409 m 0.02688,22.477346 6.143599,-20.216684 m -3.26882,21.332408 8.1331109,-17.22063 m -4.9446379,18.739313 8.4948804,-13.256638" />
  </g>
</svg>
