<?xml version="1.0" encoding="UTF-8" standalone="no"?>
<!-- Created with Inkscape (http://www.inkscape.org/) -->

<svg
   width="319.99997mm"
   height="320mm"
   viewBox="0 0 319.99997 320"
   version="1.1"
   id="svg191573"
   inkscape:version="1.1 (c68e22c387, 2021-05-23)"
   sodipodi:docname="default.svg"
   xmlns:inkscape="http://www.inkscape.org/namespaces/inkscape"
   xmlns:sodipodi="http://sodipodi.sourceforge.net/DTD/sodipodi-0.dtd"
   xmlns="http://www.w3.org/2000/svg"
   xmlns:svg="http://www.w3.org/2000/svg">
  <sodipodi:namedview
     id="namedview191575"
     pagecolor="#ffffff"
     bordercolor="#666666"
     borderopacity="1.0"
     inkscape:pageshadow="2"
     inkscape:pageopacity="0.0"
     inkscape:pagecheckerboard="0"
     inkscape:document-units="mm"
     showgrid="false"
     inkscape:zoom="0.5499273"
     inkscape:cx="713.73071"
     inkscape:cy="630.08328"
     inkscape:window-width="2560"
     inkscape:window-height="1377"
     inkscape:window-x="-8"
     inkscape:window-y="-8"
     inkscape:window-maximized="1"
     inkscape:current-layer="layer1" />
  <defs
     id="defs191570" />
  <g
     inkscape:label="Calque 1"
     inkscape:groupmode="layer"
     id="layer1"
     transform="translate(95.022026,29.108011)">
    <rect
       style="opacity:1;fill:#ffffff;fill-opacity:1;fill-rule:evenodd;stroke-width:0.499999;stroke-linecap:square;stroke-linejoin:round"
       id="rect193273"
       width="319.99997"
       height="320"
       x="-95.022026"
       y="-29.108011"
       ry="16.063913" />
    <path
       d="m 11.041204,85.220684 v 11.463161 c -1.8048102,0.668514 -3.5316602,1.002595 -5.1801902,1.002595 -4.0325998,0 -7.4471398,-1.525764 -10.2428998,-4.578703 -2.79647,-3.051881 -4.19418,-6.784269 -4.19418,-11.195403 0,-4.767791 1.68169,-8.789458 5.04614,-12.064647 3.36407998,-3.275188 7.49723,-4.912783 12.3987198,-4.912783 2.6066802,0 5.1018802,0.523522 7.4863002,1.570567 2.38372,1.047397 4.25521,2.4511 5.61446,4.211108 2.27259,2.918883 3.40889,7.151864 3.40889,12.699294 v 10.961864 c 0,5.948543 -1.68804,10.778063 -5.06306,14.487523 -3.37574,3.70946 -7.77029,5.56437 -13.1843702,5.56437 -1.64888,0 -3.7320398,-0.4124 -6.24945982,-1.23649 v -11.36262 c 1.62631002,0.89041 3.27519002,1.33668 4.94629982,1.33668 2.25002,0 3.9878,-0.74119 5.2133502,-2.2225 1.2252,-1.482024 1.83797,-3.60363 1.83797,-6.366585 V 82.045684 c 0,-3.497438 -1.41499,-5.246863 -4.2442702,-5.246863 -1.20297,0 -2.25566,0.462844 -3.15806,1.387122 -0.9024098,0.92463 -1.3536098,1.988255 -1.3536098,3.19158 0,1.27 0.42862,2.328334 1.2869298,3.174647 0.85725,0.847373 1.92123,1.27 3.19123,1.27 0.84667,0 1.6598202,-0.200377 2.4398102,-0.601486 z"
       style="fill:none;stroke:#000000;stroke-width:0.705556;stroke-linecap:butt;stroke-linejoin:miter;stroke-miterlimit:10;stroke-dasharray:none;stroke-opacity:1"
       id="path850" />
    <g
       id="g193249">
      <path
         d="m -33.908326,98.956298 h -12.49892 V 80.976274 c 0,-1.381125 -0.14535,-2.33927 -0.43462,-2.874081 -0.28963,-0.534458 -0.81351,-0.801864 -1.57057,-0.801864 -1.4037,0 -2.10573,1.236487 -2.10573,3.709459 v 17.94651 h -12.49892 V 80.976274 c 0,-1.381125 -0.15028,-2.33927 -0.4512,-2.874081 -0.30092,-0.534458 -0.83044,-0.801864 -1.5875,-0.801864 -1.38148,0 -2.07186,1.236487 -2.07186,3.709459 v 17.94651 h -12.49892 V 78.436274 c 0,-3.742619 1.25836,-6.922911 3.77613,-9.541228 2.51778,-2.617611 5.56966,-3.926769 9.15706,-3.926769 3.69817,0 7.01816,1.559983 9.95927,4.678892 3.27518,-3.118909 6.55037,-4.678892 9.82521,-4.678892 4.1663,0 7.50817,1.515533 10.0263,4.545189 1.98261,2.361847 2.97427,5.8039 2.97427,10.326511 z"
         style="fill:none;stroke:#000000;stroke-width:0.705556;stroke-linecap:butt;stroke-linejoin:miter;stroke-miterlimit:10;stroke-dasharray:none;stroke-opacity:1"
         id="path842" />
      <path
         d="m -20.306556,50.764913 c 1.69298,0 3.15842,0.5962 4.3949,1.78788 1.23649,1.19204 1.85455,2.60138 1.85455,4.22769 0,1.737782 -0.58455,3.164062 -1.75436,4.277782 -1.16981,1.114072 -2.66841,1.671108 -4.49509,1.671108 -1.82704,0 -3.32529,-0.557036 -4.4951,-1.671108 -1.16946,-1.11372 -1.75436,-2.54 -1.75436,-4.277782 0,-1.62631 0.61842,-3.03565 1.85455,-4.22769 1.23684,-1.19168 2.70157,-1.78788 4.39491,-1.78788 z m 6.21629,48.191209 h -12.49891 V 65.636614 h 12.49891 z"
         style="fill:none;stroke:#000000;stroke-width:0.705556;stroke-linecap:butt;stroke-linejoin:miter;stroke-miterlimit:10;stroke-dasharray:none;stroke-opacity:1"
         id="path846" />
      <path
         d="M 62.440994,98.956298 H 49.942084 V 80.140896 c 0,-1.915936 -0.79128,-2.87408 -2.37279,-2.87408 -1.55998,0 -2.33962,0.958144 -2.33962,2.87408 v 18.815402 h -12.49892 v -18.58151 c 0,-4.344458 1.43687,-8.003822 4.31095,-10.978444 2.87443,-2.97427 6.39445,-4.461228 10.56075,-4.461228 4.7678,0 8.58908,1.726847 11.46316,5.179836 2.25002,2.695928 3.37538,6.450189 3.37538,11.26243 z"
         style="fill:none;stroke:#000000;stroke-width:0.705556;stroke-linecap:butt;stroke-linejoin:miter;stroke-miterlimit:10;stroke-dasharray:none;stroke-opacity:1"
         id="path854" />
      <path
         d="m 85.199994,77.266816 c -1.33667,0 -2.47297,0.484716 -3.40889,1.453797 -0.93557,0.96908 -1.4037,2.155472 -1.4037,3.559175 0,1.381477 0.47307,2.562225 1.42063,3.542241 0.94651,0.981075 2.07681,1.470731 3.39196,1.470731 1.33668,0 2.47827,-0.489656 3.42547,-1.470731 0.94686,-0.980016 1.42029,-2.160764 1.42029,-3.542241 0,-1.403703 -0.46779,-2.590095 -1.40335,-3.559175 -0.93592,-0.969081 -2.08351,-1.453797 -3.44241,-1.453797 z m 0.33408,-12.332053 c 4.72334,0 8.77253,1.699331 12.14826,5.096581 3.375366,3.397955 5.063056,7.469363 5.063056,12.21493 0,4.812241 -1.70991,8.911872 -5.130086,12.298538 -3.42018,3.38702 -7.54733,5.079648 -12.38179,5.079648 -4.83482,0 -8.96797,-1.698625 -12.39908,-5.096228 -3.43077,-3.397603 -5.14668,-7.491236 -5.14668,-12.281958 0,-4.87927 1.71591,-8.984192 5.14668,-12.315119 3.43111,-3.330575 7.66444,-4.996392 12.69964,-4.996392 z"
         style="fill:none;stroke:#000000;stroke-width:0.705556;stroke-linecap:butt;stroke-linejoin:miter;stroke-miterlimit:10;stroke-dasharray:none;stroke-opacity:1"
         id="path858" />
      <path
         d="M 137.66912,98.956298 H 125.16985 V 80.140896 c 0,-1.915936 -0.79092,-2.87408 -2.37243,-2.87408 -1.55998,0 -2.33962,0.958144 -2.33962,2.87408 v 18.815402 h -12.49892 v -18.58151 c 0,-4.344458 1.43687,-8.003822 4.3113,-10.978444 2.87373,-2.97427 6.3941,-4.461228 10.5604,-4.461228 4.7678,0 8.58908,1.726847 11.46317,5.179836 2.25036,2.695928 3.37537,6.450189 3.37537,11.26243 z"
         style="fill:none;stroke:#000000;stroke-width:0.705556;stroke-linecap:butt;stroke-linejoin:miter;stroke-miterlimit:10;stroke-dasharray:none;stroke-opacity:1"
         id="path862" />
      <path
         d="M 174.66496,98.956298 H 162.16569 V 80.140896 c 0,-1.915936 -0.79092,-2.87408 -2.37243,-2.87408 -1.55998,0 -2.33962,0.958144 -2.33962,2.87408 v 18.815402 h -12.49892 v -18.58151 c 0,-4.344458 1.43687,-8.003822 4.3113,-10.978444 2.87373,-2.97427 6.3941,-4.461228 10.5604,-4.461228 4.7678,0 8.58908,1.726847 11.46317,5.179836 2.25036,2.695928 3.37537,6.450189 3.37537,11.26243 z"
         style="fill:none;stroke:#000000;stroke-width:0.705556;stroke-linecap:butt;stroke-linejoin:miter;stroke-miterlimit:10;stroke-dasharray:none;stroke-opacity:1"
         id="path866" />
      <path
         d="m 214.70217,84.31842 h -18.9491 c -0.28999,-0.957792 -0.43427,-1.837972 -0.43427,-2.640189 0,-1.113719 0.20037,-2.205567 0.60148,-3.275189 h 6.34965 c -0.44591,-2.472972 -1.83797,-3.709458 -4.17759,-3.709458 -1.55964,0 -2.82964,0.663222 -3.81001,1.988608 -0.98037,1.325739 -1.47037,3.024364 -1.47037,5.096228 0,2.161469 0.47307,3.910189 1.42063,5.247216 0.94651,1.336675 2.18899,2.004837 3.72604,2.004837 1.24743,0 2.4504,-0.623359 3.60962,-1.871134 l 7.118,8.555214 c -3.31999,2.606675 -7.00687,3.910189 -11.0617,3.910189 -4.9463,0 -9.10166,-1.659467 -12.46575,-4.979811 -3.36409,-3.319286 -5.04649,-7.429853 -5.04649,-12.3317 0,-4.879269 1.69898,-9.000772 5.09658,-12.365214 3.39725,-3.364088 7.56955,-5.046486 12.51585,-5.046486 4.83446,0 8.89494,1.643239 12.18141,4.929364 3.28648,3.286831 4.92972,7.335661 4.92972,12.148255 0,0.490009 -0.0451,1.27 -0.1337,2.33927 z"
         style="fill:none;stroke:#000000;stroke-width:0.705556;stroke-linecap:butt;stroke-linejoin:miter;stroke-miterlimit:10;stroke-dasharray:none;stroke-opacity:1"
         id="path870" />
    </g>
    <g
       id="g193134">
      <circle
         style="fill:#bc9105;fill-opacity:1;fill-rule:evenodd;stroke-width:2.53287;stroke-linejoin:round"
         id="path3291"
         cx="49.319977"
         cy="187.32256"
         r="6.7027779" />
      <circle
         style="fill:#bc9105;fill-opacity:1;fill-rule:evenodd;stroke-width:2.53287;stroke-linejoin:round"
         id="path3291-2"
         cx="67.597946"
         cy="187.15732"
         r="6.7027779" />
      <circle
         style="fill:#bc9105;fill-opacity:1;fill-rule:evenodd;stroke-width:2.53287;stroke-linejoin:round"
         id="path3291-7"
         cx="85.880676"
         cy="186.91675"
         r="6.7027779" />
    </g>
    <g
       id="g193160">
      <g
         id="g193119">
        <g
           aria-label="in"
           transform="matrix(1.0284334,0,0,1.1615183,107.2297,11.893893)"
           id="text54056"
           style="font-size:33.6806px;line-height:1.25;stroke-width:0.350839">
          <path
             d="m -81.285388,113.76556 c 1.481947,0 2.660768,-1.17882 2.660768,-2.66076 0,-1.44827 -1.178821,-2.62709 -2.660768,-2.62709 -1.448265,0 -2.627086,1.17882 -2.627086,2.62709 0,1.48194 1.178821,2.66076 2.627086,2.66076 z m -2.458683,15.59412 h 4.917367 v -13.708 l -4.917367,-0.0337 z"
             style="font-family:Chloe;-inkscape-font-specification:Chloe"
             id="path192904" />
          <path
             d="m -75.256561,129.35968 h 4.917368 v -10.60939 c 0.404167,-0.57257 1.347224,-1.54931 1.616668,-1.78507 1.246183,-1.07778 2.492365,-0.8757 2.492365,0.97674 v 11.41772 h 4.917367 V 118.043 c 0,-1.51563 -1.549307,-2.96389 -3.873269,-2.96389 -2.2566,0 -4.142713,1.78507 -5.153131,3.09861 V 115.618 h -4.917368 z"
             style="font-family:Chloe;-inkscape-font-specification:Chloe"
             id="path192906" />
        </g>
      </g>
      <g
         id="g193129">
        <g
           aria-label="Belgium"
           transform="matrix(0.48108716,0,0,0.54334244,-7.2536764,197.01081)"
           id="text54258"
           style="font-size:72px;line-height:1.25;white-space:pre;stroke-width:0.75">
          <path
             d="m -145.82618,-7.8039656 h 16.272 c 10.368,-0.216 18.72,-4.3200004 18.72,-11.1600004 0,-7.128 -8.064,-10.08 -14.688,-10.8 6.624,-0.72 11.448,-3.24 11.448,-9.072 0,-6.192 -7.632,-9.432 -17.64,-9.288 h -14.112 z m 10.872,-22.3920004 v -17.424 h 3.528 c 4.32,0 5.832,3.888 5.832,9 0,3.528 -0.792,8.424 -4.32,8.424 z m 0,21.6720004 V -29.403966 h 3.312 c 6.408,0 8.208,3.312 8.208,10.728 0,6.768 -1.44,10.1520004 -7.704,10.1520004 z"
             style="font-family:Chloe;-inkscape-font-specification:Chloe"
             id="path192909" />
          <path
             d="m -91.250256,-7.0839656 c 7.704,0 12.456,-5.3280004 13.968,-12.3120004 l -0.792,-0.144 c -1.512,4.536 -4.968,7.704 -9,7.704 -5.472,0 -9.432,-5.112 -9.792,-14.256 h 18.72 c 0,-7.56 -5.4,-11.88 -13.104,-11.88 -8.784004,0 -15.984004,6.912 -15.984004,15.408 0,8.568 7.2,15.4800004 15.984004,15.4800004 z m -5.616,-19.7280004 c 0.072,-5.832 2.376,-10.368 5.184,-10.368 2.808,0 3.888,4.536 3.888,10.368 z"
             style="font-family:Chloe;-inkscape-font-specification:Chloe"
             id="path192911" />
          <path
             d="m -71.882285,-7.8039656 h 10.512 V -52.443966 h -10.512 z"
             style="font-family:Chloe;-inkscape-font-specification:Chloe"
             id="path192913" />
          <path
             d="m -41.210401,4.7240344 c 11.16,-0.36 17.784,-7.2 17.784,-12.672 0,-7.5600004 -5.76,-9.2160004 -12.888,-9.2160004 -3.168,0 -6.408,0.288 -11.592,0.288 -2.088,0 -2.808,-0.504 -2.808,-1.584 0,-1.08 1.224,-2.304 2.808,-3.168 2.16,0.936 4.896,1.368 7.92,1.368 8.136,0 13.968,-3.888 13.968,-8.64 0,-4.752 -5.184,-8.496 -12.744,-9 0,-0.864 0.936,-3.312 4.176,-3.312 4.32,0 4.32,3.312 4.32,3.312 1.224,0 4.248,-1.944 4.248,-5.256 0,-2.808 -3.024,-4.968 -6.192,-4.968 -7.344,0 -7.272,8.352 -7.128,10.224 h -0.648 c -8.28,0 -14.112,4.032 -14.112,9 0,2.592 2.232,5.256 5.4,6.912 -1.368,0.936 -7.2,4.608 -7.2,9 0,2.304 1.8,5.1840004 6.768,5.1840004 10.512,0 20.376,0.36 20.376,4.392 0,5.616 -8.136,7.416 -12.312,7.416 -3.816,0 -8.136,-1.44 -8.136,-4.67999997 0,-2.73600003 2.376,-1.94400003 2.376,-1.94400003 0,0 -1.008,-4.536 -4.752,-4.536 -3.24,0 -4.392,2.448 -4.392,4.32 0,1.152 0.36,7.992 14.76,7.56 z m 1.224,-25.7040004 c -3.816,0 -5.112,-3.24 -5.112,-7.92 0,-4.896 1.296,-8.28 5.112,-8.28 3.384,0 4.968,3.384 4.968,8.28 0,4.68 -1.368,7.92 -4.968,7.92 z"
             style="font-family:Chloe;-inkscape-font-specification:Chloe"
             id="path192915" />
          <path
             d="m -12.41048,-41.139966 c 3.1679999,0 5.6879999,-2.52 5.6879999,-5.688 0,-3.096 -2.52,-5.616 -5.6879999,-5.616 -3.096,0 -5.616,2.52 -5.616,5.616 0,3.168 2.52,5.688 5.616,5.688 z m -5.256,33.3360004 H -7.1544801 V -37.107966 l -10.5119999,-0.072 z"
             style="font-family:Chloe;-inkscape-font-specification:Chloe"
             id="path192917" />
          <path
             d="m 8.7575177,-7.0839656 c 4.8240003,0 8.8560003,-3.8160004 11.0160003,-6.6240004 v 0.144 c 0,3.6000004 2.808,6.4800004 6.48,6.4800004 3.744,0 6.768,-3.0240004 6.768,-6.7680004 l -0.576,-0.072 c -0.144,2.088 -0.504,2.448 -1.008,2.448 -0.936,0 -1.152,-1.152 -1.152,-2.448 v -23.256 h -10.512 v 22.248 c -0.864,1.224 -2.88,3.312 -3.456,3.816 -2.664,2.3040004 -5.328,1.8720004 -5.328,-2.088 v -23.976 H 0.4775177 v 23.76 c 0,3.24 3.312,6.3360004 8.28,6.3360004 z"
             style="font-family:Chloe;-inkscape-font-specification:Chloe"
             id="path192919" />
          <path
             d="m 38.421411,-7.8039656 h 10.512 V -30.483966 c 0.864,-1.224 2.88,-3.312 3.456,-3.816 2.664,-2.304 5.328,-1.872 5.328,2.088 v 24.4080004 h 10.512 V -31.563966 c 0.936,-1.152 2.16,-2.376 2.592,-2.736 2.664,-2.304 5.328,-1.872 5.328,2.088 v 24.4080004 h 10.512 V -31.995966 c 0,-3.24 -3.312,-6.336 -8.28,-6.336 -4.32,0 -7.92,3.024 -10.224,5.688 -0.432,-3.024 -3.6,-5.688 -8.208,-5.688 -4.824,0 -8.856,3.816 -11.016,6.624 v -5.472 h -10.512 z"
             style="font-family:Chloe;-inkscape-font-specification:Chloe"
             id="path192921" />
        </g>
      </g>
      <g
         id="g193114">
        <g
           aria-label="made"
           transform="matrix(1.0284334,0,0,1.1615183,107.2297,11.893893)"
           id="text2037"
           style="font-size:33.6806px;line-height:1.25;font-family:Chloe;-inkscape-font-specification:Chloe;stroke-width:0.350839">
          <path
             d="m -163.42444,129.63947 h 4.91736 v -10.60939 c 0.40417,-0.57257 1.34723,-1.54931 1.61667,-1.78508 1.24618,-1.07777 2.49237,-0.87569 2.49237,0.97674 v 11.41773 h 4.91736 v -11.1146 c 0.43785,-0.53889 1.01042,-1.11146 1.2125,-1.27987 1.24619,-1.07777 2.49237,-0.87569 2.49237,0.97674 v 11.41773 h 4.91737 v -11.31669 c 0,-1.51562 -1.54931,-2.96389 -3.87327,-2.96389 -2.02084,0 -3.70487,1.41459 -4.78265,2.66077 -0.20208,-1.41459 -1.68403,-2.66077 -3.83959,-2.66077 -2.2566,0 -4.14271,1.78507 -5.15313,3.09862 v -2.55973 h -4.91736 z"
             id="path192924" />
          <path
             d="m -134.29077,129.97627 c 1.81875,0 3.67118,-1.3809 4.44583,-2.66077 0.16841,1.51563 1.41459,2.66077 2.99758,2.66077 1.75139,0 3.16597,-1.41458 3.16597,-3.16598 l -0.26944,-0.0337 c -0.0674,0.97674 -0.23576,1.14514 -0.47153,1.14514 -0.43785,0 -0.53889,-0.53888 -0.53889,-1.14514 v -5.59098 c 0,-1.68403 -0.70729,-2.99757 -1.85243,-3.94063 -1.31354,-1.07777 -3.09862,-1.65034 -5.25417,-1.65034 -3.1323,0 -5.65835,1.61666 -5.65835,3.67118 0,1.24618 0.77466,2.52605 2.52605,2.35764 1.07778,-0.10104 1.88611,-1.0441 1.88611,-1.68403 0,0 -1.07778,-0.26944 -1.07778,-1.85243 0,-1.58299 1.07778,-2.12188 2.29028,-2.12188 1.24619,0 2.22292,0.84202 2.22292,2.42501 v 2.425 c -4.6816,2.22292 -8.45383,2.45868 -8.45383,5.92778 0,1.81876 1.71771,3.23334 4.04168,3.23334 z m 2.2566,-1.91979 c -0.94306,0 -1.61667,-0.97674 -1.61667,-2.02084 0,-2.39132 1.44826,-3.57014 3.77222,-4.91737 v 5.86043 c -0.57257,0.70729 -1.24618,1.07778 -2.15555,1.07778 z"
             id="path192926" />
          <path
             d="m -116.30538,129.97627 c 1.34722,0 2.55973,-0.37049 3.53646,-1.3809 v 1.0441 h 4.91737 v -20.88198 h -4.91737 v 8.48751 c -0.97673,-1.01041 -2.18924,-1.61666 -3.53646,-1.61666 -3.1323,0 -5.69202,3.26701 -5.69202,7.30869 0,4.00799 2.55972,7.03924 5.69202,7.03924 z m 1.58299,-0.67361 c -1.61667,0 -2.32396,-2.76181 -2.32396,-6.36563 0,-3.63751 0.60625,-6.39932 2.32396,-6.39932 0.80833,0 1.48194,0.63993 1.95347,1.68403 v 9.39689 c -0.47153,1.0441 -1.14514,1.68403 -1.95347,1.68403 z"
             id="path192928" />
          <path
             d="m -97.848449,129.97627 c 3.603824,0 5.826744,-2.49236 6.534036,-5.75938 l -0.370486,-0.0674 c -0.707293,2.12188 -2.323961,3.60382 -4.210075,3.60382 -2.559726,0 -4.412156,-2.39132 -4.580566,-6.66876 h 8.75696 c 0,-3.53646 -2.526045,-5.5573 -6.129869,-5.5573 -4.109031,0 -7.477091,3.23334 -7.477091,7.20765 0,4.00799 3.36806,7.24133 7.477091,7.24133 z m -2.627091,-9.22848 c 0.0337,-2.72813 1.111464,-4.85001 2.425008,-4.85001 1.313543,0 1.818752,2.12188 1.818752,4.85001 z"
             id="path192930" />
        </g>
      </g>
      <g
         id="g193107">
        <path
           d="m -78.781856,134.49603 h 5.230376 v -10.87554 h 6.996926 v 10.87554 h 5.230375 v -21.90756 h -5.230375 v 10.64081 h -6.996926 v -10.64081 h -5.230376 z"
           style="font-size:33.6806px;line-height:1.25;font-family:Chloe;-inkscape-font-specification:Chloe;stroke-width:0.38345"
           id="path192933" />
        <path
           d="m -54.569778,134.88723 c 1.870464,0 3.775564,-1.60394 4.572251,-3.09052 0.173188,1.76042 1.454801,3.09052 3.082801,3.09052 1.801188,0 3.255999,-1.64306 3.255999,-3.67733 l -0.277111,-0.0392 c -0.06932,1.13449 -0.242463,1.3301 -0.484937,1.3301 -0.4503,0 -0.554213,-0.62593 -0.554213,-1.3301 v -6.49403 c 0,-1.95603 -0.7274,-3.48173 -1.905101,-4.57711 -1.350888,-1.25186 -3.186724,-1.91691 -5.403563,-1.91691 -3.221362,0 -5.819226,1.87779 -5.819226,4.26415 0,1.44746 0.796676,2.93404 2.597864,2.73844 1.108425,-0.11736 1.939738,-1.21274 1.939738,-1.95603 0,0 -1.108425,-0.31296 -1.108425,-2.15163 0,-1.83867 1.108425,-2.4646 2.355411,-2.4646 1.281613,0 2.286125,0.97801 2.286125,2.81668 v 2.81669 c -4.814724,2.58196 -8.694211,2.8558 -8.694211,6.88523 0,2.11251 1.76656,3.75558 4.156598,3.75558 z m 2.320763,-2.22987 c -0.969874,0 -1.662637,-1.1345 -1.662637,-2.34725 0,-2.77756 1.489439,-4.14678 3.879487,-5.7116 v 6.80699 c -0.58886,0.82153 -1.281623,1.25186 -2.21685,1.25186 z"
           style="font-size:33.6806px;line-height:1.25;font-family:Chloe;-inkscape-font-specification:Chloe;stroke-width:0.38345"
           id="path192935" />
        <path
           d="m -41.060904,134.49603 h 5.057188 v -12.323 c 0.415651,-0.66505 1.385526,-1.79955 1.662627,-2.0734 1.281623,-1.25186 2.563236,-1.01713 2.563236,1.1345 v 13.2619 h 5.057188 v -13.14454 c 0,-1.76043 -1.593362,-3.44261 -3.9834,-3.44261 -2.320763,0 -4.260512,2.07339 -5.299651,3.5991 v -2.97317 h -5.057188 z"
           style="font-size:33.6806px;line-height:1.25;font-family:Chloe;-inkscape-font-specification:Chloe;stroke-width:0.38345"
           id="path192937" />
        <path
           d="m -18.268938,134.88723 c 1.385526,0 2.632502,-0.43032 3.637014,-1.60394 v 1.21274 h 5.0571875 v -24.2548 h -5.0571875 v 9.8584 c -1.004512,-1.17362 -2.251488,-1.87779 -3.637014,-1.87779 -3.221362,0 -5.853863,3.7947 -5.853863,8.48918 0,4.65536 2.632501,8.17621 5.853863,8.17621 z m 1.628,-0.78241 c -1.662637,0 -2.390038,-3.20789 -2.390038,-7.3938 0,-4.22503 0.623488,-7.43292 2.390038,-7.43292 0.831314,0 1.524077,0.74329 2.009014,1.95603 v 10.91466 c -0.484937,1.21274 -1.1777,1.95603 -2.009014,1.95603 z"
           style="font-size:33.6806px;line-height:1.25;font-family:Chloe;-inkscape-font-specification:Chloe;stroke-width:0.38345"
           id="path192939" />
      </g>
    </g>
    <g
       id="g107233"
       transform="matrix(0.42916432,0,0,0.43071916,-28.992812,-7.6039249)">
      <ellipse
         style="opacity:1;fill:#bc9105;fill-opacity:1;fill-rule:evenodd;stroke:none;stroke-width:0.649999;stroke-linejoin:round;stroke-miterlimit:4;stroke-dasharray:none;stroke-opacity:1"
         id="path90717"
         cx="45.794456"
         cy="143.65764"
         rx="15.649485"
         ry="15"
         transform="rotate(10)" />
      <path
         d="m 29.932395,158.88707 -5.887371,-1.03811 1.493341,-8.46916 c 0.114709,-0.65054 0.125824,-1.11393 0.03399,-1.38987 -0.09204,-0.2758 -0.316592,-0.44526 -0.67319,-0.50814 -0.661186,-0.11658 -1.094558,0.40753 -1.299952,1.57238 l -1.490555,8.45335 -5.887373,-1.0381 1.49334,-8.46915 c 0.114709,-0.65055 0.1235,-1.11435 0.02618,-1.39125 -0.09735,-0.27674 -0.324565,-0.44667 -0.681164,-0.50955 -0.650718,-0.11474 -1.078605,0.41034 -1.283999,1.57519 l -1.490555,8.45335 -5.8873697,-1.0381 1.7042967,-9.66555 c 0.310846,-1.7629 1.167712,-3.1564 2.571122,-4.18058 1.403359,-1.02387 2.949621,-1.38705 4.639396,-1.0891 1.74195,0.30715 3.176201,1.3177 4.30251,3.03108 1.801754,-1.19708 3.474033,-1.65986 5.016582,-1.38787 1.962456,0.34603 3.410703,1.33746 4.345191,2.97366 0.737704,1.27717 0.918924,2.98085 0.543296,5.11114 z"
         style="fill:#ffffff;fill-opacity:1;stroke:none;stroke-width:0.337466;stroke-linecap:butt;stroke-linejoin:miter;stroke-miterlimit:10;stroke-dasharray:none;stroke-opacity:1"
         id="path842-6" />
    </g>
    <rect
       style="opacity:1;fill:none;fill-rule:evenodd;stroke-width:0.499999;stroke-linecap:square;stroke-linejoin:round"
       id="rect192760"
       width="320"
       height="320"
       x="-95.022026"
       y="-29.108011"
       ry="16.063913" />
  </g>
</svg>
