<?xml version="1.0" encoding="UTF-8" standalone="no"?>
<!-- Created with Inkscape (http://www.inkscape.org/) -->

<svg
   version="1.1"
   id="svg824"
   xml:space="preserve"
   width="1333.3333"
   height="333.33334"
   viewBox="0 0 1333.3333 333.33334"
   sodipodi:docname="MIGNONNE.svg"
   inkscape:version="1.1 (c68e22c387, 2021-05-23)"
   xmlns:inkscape="http://www.inkscape.org/namespaces/inkscape"
   xmlns:sodipodi="http://sodipodi.sourceforge.net/DTD/sodipodi-0.dtd"
   xmlns="http://www.w3.org/2000/svg"
   xmlns:svg="http://www.w3.org/2000/svg"><defs
     id="defs828"><clipPath
       clipPathUnits="userSpaceOnUse"
       id="clipPath838"><path
         d="M 0,250 H 1000 V 0 H 0 Z"
         id="path836" /></clipPath></defs><sodipodi:namedview
     id="namedview826"
     pagecolor="#ffffff"
     bordercolor="#666666"
     borderopacity="1.0"
     inkscape:pageshadow="2"
     inkscape:pageopacity="0.0"
     inkscape:pagecheckerboard="0"
     showgrid="false"
     inkscape:zoom="0.68662504"
     inkscape:cx="419.4429"
     inkscape:cy="86.655738"
     inkscape:window-width="2319"
     inkscape:window-height="1081"
     inkscape:window-x="269"
     inkscape:window-y="269"
     inkscape:window-maximized="0"
     inkscape:current-layer="g830" /><g
     id="g830"
     inkscape:groupmode="layer"
     inkscape:label="MIGNONNE"
     transform="matrix(1.3333333,0,0,-1.3333333,0,333.33333)"><path
       d="m 214.9209,78.4365 h -35.43 v 50.967 c 0,3.915 -0.412,6.631 -1.232,8.147 -0.821,1.515 -2.306,2.273 -4.452,2.273 -3.979,0 -5.969,-3.505 -5.969,-10.515 v -50.872 h -35.43 v 50.967 c 0,3.915 -0.426,6.631 -1.279,8.147 -0.853,1.515 -2.354,2.273 -4.5,2.273 -3.916,0 -5.873,-3.505 -5.873,-10.515 v -50.872 h -35.43 v 58.167 c 0,10.609 3.567,19.624 10.704,27.046 7.137,7.42 15.788,11.131 25.957,11.131 10.483,0 19.894,-4.422 28.231,-13.263 9.284,8.841 18.568,13.263 27.851,13.263 11.81,0 21.283,-4.296 28.421,-12.884 5.62,-6.695 8.431,-16.452 8.431,-29.272 z"
       style="fill:none;stroke:#000000;stroke-width:2;stroke-linecap:butt;stroke-linejoin:miter;stroke-miterlimit:10;stroke-dasharray:none;stroke-opacity:1"
       id="path842" /><path
       d="m 253.4771,215.042 c 4.799,0 8.953,-1.69 12.458,-5.068 3.505,-3.379 5.257,-7.374 5.257,-11.984 0,-4.926 -1.657,-8.969 -4.973,-12.126 -3.316,-3.158 -7.564,-4.737 -12.742,-4.737 -5.179,0 -9.426,1.579 -12.742,4.737 -3.315,3.157 -4.973,7.2 -4.973,12.126 0,4.61 1.753,8.605 5.257,11.984 3.506,3.378 7.658,5.068 12.458,5.068 z m 17.621,-136.605 h -35.43 v 94.449 h 35.43 z"
       style="fill:none;stroke:#000000;stroke-width:2;stroke-linecap:butt;stroke-linejoin:miter;stroke-miterlimit:10;stroke-dasharray:none;stroke-opacity:1"
       id="path846" /><path
       d="m 342.3369,117.3721 v -32.494 c -5.116,-1.895 -10.011,-2.842 -14.684,-2.842 -11.431,0 -21.11,4.325 -29.035,12.979 -7.927,8.651 -11.889,19.231 -11.889,31.735 0,13.515 4.767,24.915 14.304,34.199 9.536,9.284 21.252,13.926 35.146,13.926 7.389,0 14.462,-1.484 21.221,-4.452 6.757,-2.969 12.062,-6.948 15.915,-11.937 6.442,-8.274 9.663,-20.273 9.663,-35.998 v -31.073 c 0,-16.862 -4.785,-30.552 -14.352,-41.067 -9.569,-10.515 -22.026,-15.773 -37.373,-15.773 -4.674,0 -10.579,1.169 -17.715,3.505 v 32.209 c 4.61,-2.524 9.284,-3.789 14.021,-3.789 6.378,0 11.304,2.101 14.778,6.3 3.473,4.201 5.21,10.215 5.21,18.047 v 35.525 c 0,9.914 -4.011,14.873 -12.031,14.873 -3.41,0 -6.394,-1.312 -8.952,-3.932 -2.558,-2.621 -3.837,-5.636 -3.837,-9.047 0,-3.6 1.215,-6.6 3.648,-8.999 2.43,-2.402 5.446,-3.6 9.046,-3.6 2.4,0 4.705,0.568 6.916,1.705 z"
       style="fill:none;stroke:#000000;stroke-width:2;stroke-linecap:butt;stroke-linejoin:miter;stroke-miterlimit:10;stroke-dasharray:none;stroke-opacity:1"
       id="path850" /><path
       d="m 488.0371,78.4365 h -35.43 v 53.335 c 0,5.431 -2.243,8.147 -6.726,8.147 -4.422,0 -6.632,-2.716 -6.632,-8.147 v -53.335 h -35.43 v 52.672 c 0,12.315 4.073,22.688 12.22,31.12 8.148,8.431 18.126,12.646 29.936,12.646 13.515,0 24.347,-4.895 32.494,-14.683 6.378,-7.642 9.568,-18.284 9.568,-31.925 z"
       style="fill:none;stroke:#000000;stroke-width:2;stroke-linecap:butt;stroke-linejoin:miter;stroke-miterlimit:10;stroke-dasharray:none;stroke-opacity:1"
       id="path854" /><path
       d="m 552.5508,139.9185 c -3.789,0 -7.01,-1.374 -9.663,-4.121 -2.652,-2.747 -3.979,-6.11 -3.979,-10.089 0,-3.916 1.341,-7.263 4.027,-10.041 2.683,-2.781 5.887,-4.169 9.615,-4.169 3.789,0 7.025,1.388 9.71,4.169 2.684,2.778 4.026,6.125 4.026,10.041 0,3.979 -1.326,7.342 -3.978,10.089 -2.653,2.747 -5.906,4.121 -9.758,4.121 z m 0.947,34.957 c 13.389,0 24.867,-4.817 34.436,-14.447 9.568,-9.632 14.352,-21.173 14.352,-34.625 0,-13.641 -4.847,-25.262 -14.542,-34.862 -9.695,-9.601 -21.394,-14.399 -35.098,-14.399 -13.705,0 -25.421,4.815 -35.147,14.446 -9.725,9.631 -14.589,21.235 -14.589,34.815 0,13.831 4.864,25.467 14.589,34.909 9.726,9.441 21.726,14.163 35.999,14.163 z"
       style="fill:none;stroke:#000000;stroke-width:2;stroke-linecap:butt;stroke-linejoin:miter;stroke-miterlimit:10;stroke-dasharray:none;stroke-opacity:1"
       id="path858" /><path
       d="m 701.2822,78.4365 h -35.431 v 53.335 c 0,5.431 -2.242,8.147 -6.725,8.147 -4.422,0 -6.632,-2.716 -6.632,-8.147 v -53.335 h -35.43 v 52.672 c 0,12.315 4.073,22.688 12.221,31.12 8.146,8.431 18.125,12.646 29.935,12.646 13.515,0 24.347,-4.895 32.494,-14.683 6.379,-7.642 9.568,-18.284 9.568,-31.925 z"
       style="fill:none;stroke:#000000;stroke-width:2;stroke-linecap:butt;stroke-linejoin:miter;stroke-miterlimit:10;stroke-dasharray:none;stroke-opacity:1"
       id="path862" /><path
       d="m 806.1523,78.4365 h -35.431 v 53.335 c 0,5.431 -2.242,8.147 -6.725,8.147 -4.422,0 -6.632,-2.716 -6.632,-8.147 v -53.335 h -35.43 v 52.672 c 0,12.315 4.073,22.688 12.221,31.12 8.146,8.431 18.125,12.646 29.935,12.646 13.515,0 24.347,-4.895 32.494,-14.683 6.379,-7.642 9.568,-18.284 9.568,-31.925 z"
       style="fill:none;stroke:#000000;stroke-width:2;stroke-linecap:butt;stroke-linejoin:miter;stroke-miterlimit:10;stroke-dasharray:none;stroke-opacity:1"
       id="path866" /><path
       d="m 919.6436,119.9297 h -53.714 c -0.822,2.715 -1.231,5.21 -1.231,7.484 0,3.157 0.568,6.252 1.705,9.284 h 17.999 c -1.264,7.01 -5.21,10.515 -11.842,10.515 -4.421,0 -8.021,-1.88 -10.8,-5.637 -2.779,-3.758 -4.168,-8.573 -4.168,-14.446 0,-6.127 1.341,-11.084 4.027,-14.874 2.683,-3.789 6.205,-5.683 10.562,-5.683 3.536,0 6.946,1.767 10.232,5.304 l 20.177,-24.251 c -9.411,-7.389 -19.862,-11.084 -31.356,-11.084 -14.021,0 -25.8,4.704 -35.336,14.116 -9.536,9.409 -14.305,21.061 -14.305,34.956 0,13.831 4.816,25.514 14.447,35.051 9.63,9.536 21.457,14.305 35.478,14.305 13.704,0 25.214,-4.658 34.53,-13.973 9.316,-9.317 13.974,-20.794 13.974,-34.436 0,-1.389 -0.128,-3.6 -0.379,-6.631 z"
       style="fill:none;stroke:#000000;stroke-width:2;stroke-linecap:butt;stroke-linejoin:miter;stroke-miterlimit:10;stroke-dasharray:none;stroke-opacity:1"
       id="path870" /><circle
       style="opacity:1;fill:#d1554b;fill-rule:evenodd;stroke-width:7.17979;stroke-linejoin:round"
       id="path3291"
       cx="253.41344"
       cy="-197.43311"
       transform="scale(1,-1)"
       r="19" /></g></svg>
