<?xml version="1.0" encoding="UTF-8" standalone="no"?>
<!-- Created with Inkscape (http://www.inkscape.org/) -->

<svg
   width="50.268818mm"
   height="50.268818mm"
   viewBox="0 0 50.268817 50.268819"
   version="1.1"
   id="svg25224"
   sodipodi:docname="openedEye.svg"
   inkscape:version="1.1 (c68e22c387, 2021-05-23)"
   xmlns:inkscape="http://www.inkscape.org/namespaces/inkscape"
   xmlns:sodipodi="http://sodipodi.sourceforge.net/DTD/sodipodi-0.dtd"
   xmlns="http://www.w3.org/2000/svg"
   xmlns:svg="http://www.w3.org/2000/svg">
  <sodipodi:namedview
     id="namedview25226"
     pagecolor="#ffffff"
     bordercolor="#666666"
     borderopacity="1.0"
     inkscape:pageshadow="2"
     inkscape:pageopacity="0.0"
     inkscape:pagecheckerboard="0"
     inkscape:document-units="mm"
     showgrid="false"
     inkscape:zoom="2.1997092"
     inkscape:cx="219.34718"
     inkscape:cy="160.70306"
     inkscape:window-width="1962"
     inkscape:window-height="1081"
     inkscape:window-x="383"
     inkscape:window-y="725"
     inkscape:window-maximized="0"
     inkscape:current-layer="layer1" />
  <defs
     id="defs25221" />
  <g
     inkscape:label="Calque 1"
     inkscape:groupmode="layer"
     id="layer1"
     transform="translate(52.750452,39.978838)">
    <path
       id="path22189"
       style="fill:#bc9105;fill-opacity:1;fill-rule:evenodd;stroke:#bc9105;stroke-width:0.765594;stroke-linecap:round;stroke-linejoin:round;stroke-miterlimit:4;stroke-dasharray:none;stroke-opacity:1"
       d="m -26.634242,-3.8450965 a 3.1167364,2.9149486 0 0 0 -3.1167,2.91495034 3.1167364,2.9149486 0 0 0 3.1167,2.91494396 3.1167364,2.9149486 0 0 0 3.10002,-2.63312996 1.9479602,1.8218429 0 0 1 -1.00596,0.26472 1.9479602,1.8218429 0 0 1 -1.94796,-1.82184634 1.9479602,1.8218429 0 0 1 0.83856,-1.490208 3.1167364,2.9149486 0 0 0 -0.98466,-0.14946 z" />
    <path
       id="path29058-2"
       style="fill:none;stroke:#bc9105;stroke-width:1.586;stroke-linecap:butt;stroke-linejoin:miter;stroke-miterlimit:4;stroke-dasharray:none;stroke-opacity:1"
       d="m -48.893282,-16.16319 7.457423,8.179112 m 11.269276,-5.708279 -3.095017,-21.754409 m -0.02688,22.477346 -6.143599,-20.216684 m 3.26882,21.332408 -8.133111,-17.22063 m 4.944638,18.739313 -8.49488,-13.256638 m 43.0882999,7.428461 -7.4574229,8.1791123 m -14.610061,-6.1589283 0.191157,-22.863017 m 3.149628,23.313666 3.095017,-21.754409 m 0.02688,22.477346 6.143599,-20.216684 m -3.26882,21.332408 8.1331109,-17.22063 m -4.9446379,18.739313 8.4948804,-13.256638 M -20.12353,-1.0466945 a 6.6673429,6.6675004 0 0 1 -6.667337,6.667501 6.6673429,6.6675004 0 0 1 -6.667345,-6.667501 6.6673429,6.6675004 0 0 1 6.667345,-6.667501 6.6673429,6.6675004 0 0 1 6.667337,6.667501 z m -20.764409,-0.2191084 c 8.873732,9.1559838 18.811539,9.3475872 27.711851,0 -9.518177,-8.8044041 -17.756823,-8.8634991 -27.711851,0 z" />
  </g>
</svg>
