<?xml version="1.0" standalone="no"?>
<!DOCTYPE svg PUBLIC "-//W3C//DTD SVG 20010904//EN"
 "http://www.w3.org/TR/2001/REC-SVG-20010904/DTD/svg10.dtd">
<svg version="1.0" xmlns="http://www.w3.org/2000/svg"
 width="827.000000pt" height="824.000000pt" viewBox="0 0 827.000000 824.000000"
 preserveAspectRatio="xMidYMid meet">

<g transform="translate(0.000000,824.000000) scale(0.100000,-0.100000)"
fill="#000000" stroke="none">
<path d="M3744 8225 c-525 -55 -999 -193 -1464 -426 -425 -214 -776 -471
-1111 -817 -649 -668 -1034 -1486 -1150 -2447 -15 -129 -16 -748 0 -870 91
-705 302 -1289 666 -1840 166 -251 333 -452 567 -680 422 -413 889 -709 1463
-925 189 -71 530 -163 688 -186 l47 -6 0 1606 0 1606 -500 0 -500 0 0 575 0
575 500 0 500 0 1 308 c0 169 4 435 9 592 7 251 11 297 33 390 106 443 334
747 692 925 214 106 355 141 639 157 212 12 651 1 884 -23 l112 -12 0 -512 0
-512 -377 -6 c-405 -6 -461 -12 -569 -61 -116 -53 -200 -172 -223 -316 -6 -38
-11 -246 -11 -497 l0 -433 571 0 571 0 -6 -27 c-3 -16 -26 -192 -51 -393 -40
-323 -74 -579 -91 -692 l-6 -38 -499 0 -499 0 0 -1620 0 -1620 28 0 c49 0 313
49 462 86 582 144 1079 388 1582 774 146 112 526 487 645 635 506 634 797
1324 899 2135 21 167 28 544 15 754 -54 857 -375 1662 -938 2356 -111 137
-448 470 -588 581 -573 456 -1208 742 -1915 863 -205 35 -324 45 -655 50 -207
4 -328 1 -421 -9z"/>
</g>
</svg>
