<?xml version="1.0" standalone="no"?>
<!DOCTYPE svg PUBLIC "-//W3C//DTD SVG 20010904//EN"
 "http://www.w3.org/TR/2001/REC-SVG-20010904/DTD/svg10.dtd">
<svg version="1.0" xmlns="http://www.w3.org/2000/svg"
 width="827.000000pt" height="827.000000pt" viewBox="0 0 827.000000 827.000000"
 preserveAspectRatio="xMidYMid meet">

<g transform="translate(0.000000,827.000000) scale(0.100000,-0.100000)"
fill="#000000" stroke="none">
<path d="M3985 8264 c-162 -10 -425 -38 -555 -60 -590 -100 -1181 -342 -1658
-678 -723 -507 -1260 -1219 -1545 -2046 -38 -109 -50 -151 -98 -335 -94 -364
-142 -851 -119 -1211 41 -646 167 -1125 436 -1664 240 -478 585 -924 969
-1252 39 -33 81 -70 95 -82 86 -77 403 -299 523 -366 225 -126 389 -207 435
-216 l32 -6 0 158 c1 202 15 429 35 570 9 60 48 244 87 409 39 165 87 372 108
460 20 88 92 390 158 670 67 281 143 606 171 722 l49 213 -35 97 c-66 185 -93
345 -93 553 0 355 100 623 314 835 121 120 218 175 357 202 234 44 458 -64
559 -271 56 -115 70 -178 70 -326 0 -179 -34 -333 -185 -835 -165 -551 -185
-633 -185 -774 0 -114 12 -193 36 -239 8 -15 14 -32 14 -38 0 -24 85 -142 139
-192 67 -64 148 -111 256 -148 74 -26 91 -28 240 -28 176 0 249 14 380 73 195
89 408 289 543 512 186 305 314 701 367 1129 22 176 31 578 16 710 -24 208
-66 349 -157 535 -76 156 -162 273 -286 390 -243 229 -538 362 -929 419 -143
21 -515 22 -676 1 -663 -87 -1215 -473 -1503 -1053 -148 -298 -221 -645 -206
-982 10 -237 42 -370 132 -547 29 -57 84 -143 124 -193 52 -66 73 -100 77
-128 4 -35 -70 -362 -99 -435 -20 -51 -65 -87 -109 -87 -92 0 -298 126 -439
269 -296 299 -449 733 -450 1272 0 284 34 491 122 747 250 727 814 1307 1560
1603 209 83 469 150 768 196 167 26 714 26 880 0 332 -52 574 -129 861 -272
712 -357 1184 -1007 1294 -1780 17 -120 19 -409 4 -596 -13 -157 -59 -439 -95
-583 -132 -522 -356 -942 -678 -1274 -290 -298 -617 -481 -1019 -568 -167 -36
-475 -46 -612 -19 -303 59 -576 215 -719 409 -83 114 -76 125 -185 -307 -51
-204 -99 -392 -106 -417 -8 -25 -35 -126 -61 -225 -78 -300 -177 -535 -353
-840 -45 -77 -80 -149 -79 -160 3 -16 22 -24 108 -47 176 -46 396 -88 580
-110 234 -28 718 -31 945 -5 663 76 1265 291 1805 645 268 175 412 293 656
536 110 111 246 257 301 326 503 631 800 1346 890 2142 21 190 24 706 5 873
-63 544 -181 962 -398 1407 -559 1141 -1619 1968 -2854 2223 -299 62 -769 103
-1015 89z"/>
</g>
</svg>
